<svg width="256" height="256" viewBox="0 0 256 256" fill="none" xmlns="http://www.w3.org/2000/svg">
<rect width="256" height="256" rx="24" fill="black"/>
<path d="M124.502 110.145L114.417 120.064H86.4778V158.088H121.195V168.008H86.4778C83.2816 168.008 80.5262 166.906 78.2117 164.701C76.0074 162.387 74.9053 159.631 74.9053 156.435V121.718C74.9053 118.521 76.0074 115.821 78.2117 113.617C80.5262 111.302 83.2816 110.145 86.4778 110.145H124.502Z" fill="#88E755"/>
<path d="M73.8627 168.008H62.2902V159.576L52.3708 168.008H27.5725C24.3763 168.008 21.6209 166.906 19.3064 164.701C17.1021 162.387 16 159.631 16 156.435V144.863C16 141.666 17.1021 138.966 19.3064 136.762C21.6209 134.447 24.3763 133.29 27.5725 133.29H60.6369L50.7176 143.044H27.5725V158.088H62.2902V120.064H16L25.9193 110.145H62.2902C65.4864 110.145 68.1866 111.302 70.3909 113.617C72.7055 115.821 73.8627 118.521 73.8627 121.718V168.008Z" fill="#88E755"/>
<path d="M167.162 168.008H144.017C140.821 168.008 138.065 166.906 135.751 164.701C133.546 162.387 132.444 159.632 132.444 156.435V120.064H115.912L125.831 110.145H132.444V98.5725L144.017 87V110.145H167.162V120.064H144.017V158.088H167.162V168.008Z" fill="#88E755"/>
<path d="M179.794 100.226H168.222V87H179.794V100.226ZM179.794 168.008H168.222V118.411L179.794 106.839V168.008Z" fill="#88E755"/>
<path d="M239 156.539C239 159.735 237.843 162.49 235.529 164.805C233.324 167.009 230.624 168.111 227.428 168.111H192.71C189.514 168.111 186.759 167.009 184.444 164.805C182.24 162.49 181.138 159.735 181.138 156.539V121.821C181.138 118.625 182.24 115.925 184.444 113.72C186.759 111.406 189.514 110.249 192.71 110.249H227.428C230.624 110.249 233.324 111.406 235.529 113.72C237.843 115.925 239 118.625 239 121.821V156.539ZM227.428 158.192V120.168H192.71V158.192H227.428Z" fill="#88E755"/>
</svg>
