<svg width="339" height="124" viewBox="0 0 339 124" fill="none" xmlns="http://www.w3.org/2000/svg">
<path d="M164.943 35.1846L149.612 50.2637H107.139V108.067H159.916V123.146H107.139C102.28 123.146 98.0917 121.471 94.5733 118.12C91.2223 114.601 89.5469 110.413 89.5469 105.554V52.7769C89.5469 47.9181 91.2223 43.8132 94.5733 40.4623C98.0917 36.9438 102.28 35.1846 107.139 35.1846H164.943Z" fill="black"/>
<path d="M87.9617 123.146H70.3694V110.329L55.2902 123.146H17.5923C12.7335 123.146 8.54485 121.471 5.02638 118.12C1.67545 114.601 0 110.413 0 105.554V87.9616C0 83.1027 1.67545 78.9979 5.02638 75.647C8.54485 72.1285 12.7335 70.3693 17.5923 70.3693H67.8562L52.777 85.1971H17.5923V108.067H70.3694V50.2637H0L15.0791 35.1846H70.3694C75.2283 35.1846 79.333 36.9438 82.684 40.4623C86.2025 43.8132 87.9617 47.9181 87.9617 52.7769V123.146Z" fill="black"/>
<path d="M229.794 123.146H194.609C189.75 123.146 185.562 121.471 182.043 118.12C178.692 114.602 177.017 110.413 177.017 105.554V50.2638H151.885L166.964 35.1847H177.017V17.5923L194.609 0V35.1847H229.794V50.2638H194.609V108.067H229.794V123.146Z" fill="black"/>
<path d="M248.998 20.1055H231.405V0H248.998V20.1055ZM248.998 123.146H231.405V47.7506L248.998 30.1583V123.146Z" fill="black"/>
<path d="M339 105.711C339 110.57 337.241 114.759 333.722 118.277C330.371 121.628 326.266 123.303 321.407 123.303H268.63C263.772 123.303 259.583 121.628 256.064 118.277C252.714 114.759 251.038 110.57 251.038 105.711V52.9341C251.038 48.0753 252.714 43.9704 256.064 40.6195C259.583 37.101 263.772 35.3418 268.63 35.3418H321.407C326.266 35.3418 330.371 37.101 333.722 40.6195C337.241 43.9704 339 48.0753 339 52.9341V105.711ZM321.407 108.224V50.421H268.63V108.224H321.407Z" fill="black"/>
</svg>
